<svg width="400" height="200" viewBox="0 0 400 200" xmlns="http://www.w3.org/2000/svg">
  <defs>
    <linearGradient id="loungerFrame" x1="0%" y1="0%" x2="100%" y2="0%">
      <stop offset="0%" style="stop-color:#C0C0C0;stop-opacity:1" />
      <stop offset="50%" style="stop-color:#E6E6E6;stop-opacity:1" />
      <stop offset="100%" style="stop-color:#C0C0C0;stop-opacity:1" />
    </linearGradient>
    <linearGradient id="loungerFabric" x1="0%" y1="0%" x2="100%" y2="0%">
      <stop offset="0%" style="stop-color:#87CEEB;stop-opacity:1" />
      <stop offset="50%" style="stop-color:#B0E0E6;stop-opacity:1" />
      <stop offset="100%" style="stop-color:#87CEEB;stop-opacity:1" />
    </linearGradient>
    <linearGradient id="loungerShadow" x1="0%" y1="0%" x2="100%" y2="0%">
      <stop offset="0%" style="stop-color:#000000;stop-opacity:0.1" />
      <stop offset="100%" style="stop-color:#000000;stop-opacity:0.3" />
    </linearGradient>
  </defs>
  
  <!-- Shadow -->
  <ellipse cx="200" cy="190" rx="180" ry="15" fill="url(#loungerShadow)" opacity="0.3"/>
  
  <!-- Frame -->
  <rect x="50" y="80" width="300" height="8" fill="url(#loungerFrame)" rx="4"/>
  <rect x="50" y="120" width="300" height="8" fill="url(#loungerFrame)" rx="4"/>
  <rect x="50" y="160" width="300" height="8" fill="url(#loungerFrame)" rx="4"/>
  
  <!-- Vertical supports -->
  <rect x="60" y="80" width="6" height="88" fill="url(#loungerFrame)" rx="3"/>
  <rect x="150" y="80" width="6" height="88" fill="url(#loungerFrame)" rx="3"/>
  <rect x="240" y="80" width="6" height="88" fill="url(#loungerFrame)" rx="3"/>
  <rect x="330" y="80" width="6" height="88" fill="url(#loungerFrame)" rx="3"/>
  
  <!-- Fabric -->
  <rect x="60" y="88" width="280" height="24" fill="url(#loungerFabric)" rx="2"/>
  <rect x="60" y="128" width="280" height="24" fill="url(#loungerFabric)" rx="2"/>
  <rect x="60" y="168" width="280" height="24" fill="url(#loungerFabric)" rx="2"/>
  
  <!-- Headrest -->
  <rect x="80" y="40" width="240" height="40" fill="url(#loungerFabric)" rx="20"/>
  <rect x="80" y="40" width="240" height="8" fill="url(#loungerFrame)" rx="4"/>
</svg>
