<svg width="250" height="350" viewBox="0 0 250 350" xmlns="http://www.w3.org/2000/svg">
  <defs>
    <linearGradient id="potGradient" x1="0%" y1="0%" x2="100%" y2="0%">
      <stop offset="0%" style="stop-color:#CD853F;stop-opacity:1" />
      <stop offset="50%" style="stop-color:#DEB887;stop-opacity:1" />
      <stop offset="100%" style="stop-color:#CD853F;stop-opacity:1" />
    </linearGradient>
    <radialGradient id="soilGradient" cx="50%" cy="50%" r="50%">
      <stop offset="0%" style="stop-color:#8B4513;stop-opacity:1" />
      <stop offset="100%" style="stop-color:#654321;stop-opacity:1" />
    </radialGradient>
    <linearGradient id="leafGradient" x1="0%" y1="0%" x2="100%" y2="0%">
      <stop offset="0%" style="stop-color:#90EE90;stop-opacity:1" />
      <stop offset="50%" style="stop-color:#32CD32;stop-opacity:1" />
      <stop offset="100%" style="stop-color:#228B22;stop-opacity:1" />
    </linearGradient>
  </defs>
  
  <!-- Pot -->
  <ellipse cx="125" cy="320" rx="80" ry="20" fill="url(#potGradient)"/>
  <rect x="45" y="200" width="160" height="120" fill="url(#potGradient)" rx="10"/>
  <ellipse cx="125" cy="200" rx="80" ry="15" fill="url(#potGradient)"/>
  
  <!-- Soil -->
  <ellipse cx="125" cy="200" rx="75" ry="10" fill="url(#soilGradient)"/>
  
  <!-- Plant stems -->
  <path d="M 125 200 Q 100 150 80 100" stroke="#228B22" stroke-width="3" fill="none"/>
  <path d="M 125 200 Q 150 150 170 100" stroke="#228B22" stroke-width="3" fill="none"/>
  <path d="M 125 200 Q 110 140 95 80" stroke="#228B22" stroke-width="3" fill="none"/>
  <path d="M 125 200 Q 140 140 155 80" stroke="#228B22" stroke-width="3" fill="none"/>
  
  <!-- Leaves -->
  <ellipse cx="80" cy="100" rx="25" ry="40" fill="url(#leafGradient)" transform="rotate(-30 80 100)"/>
  <ellipse cx="170" cy="100" rx="25" ry="40" fill="url(#leafGradient)" transform="rotate(30 170 100)"/>
  <ellipse cx="95" cy="80" rx="20" ry="35" fill="url(#leafGradient)" transform="rotate(-45 95 80)"/>
  <ellipse cx="155" cy="80" rx="20" ry="35" fill="url(#leafGradient)" transform="rotate(45 155 80)"/>
  
  <!-- Additional smaller leaves -->
  <ellipse cx="110" cy="120" rx="15" ry="25" fill="url(#leafGradient)" transform="rotate(-20 110 120)"/>
  <ellipse cx="140" cy="120" rx="15" ry="25" fill="url(#leafGradient)" transform="rotate(20 140 120)"/>
</svg>
