<?xml version="1.0" encoding="UTF-8"?>
<svg width="300" height="200" viewBox="0 0 300 200" xmlns="http://www.w3.org/2000/svg">
  <defs>
    <linearGradient id="bg" x1="0%" y1="0%" x2="100%" y2="100%">
      <stop offset="0%" style="stop-color:#f8f9fa;stop-opacity:1" />
      <stop offset="100%" style="stop-color:#e9ecef;stop-opacity:1" />
    </linearGradient>
  </defs>
  
  <!-- Background -->
  <rect width="300" height="200" fill="url(#bg)" stroke="#dee2e6" stroke-width="2"/>
  
  <!-- Pool shape based on category -->
  
        <path d="M 80 80 Q 120 60 160 80 Q 200 100 240 80 Q 220 120 180 140 Q 140 160 100 140 Q 80 120 80 80 Z" 
              fill="#7ED321" opacity="0.7" stroke="#7ED321" stroke-width="2"/>
        <path d="M 90 90 Q 120 75 150 90 Q 180 105 210 90 Q 200 110 170 125 Q 140 140 110 125 Q 90 110 90 90 Z" 
              fill="#7ED321" opacity="0.3"/>
      
  
  <!-- Template name -->
  <text x="150" y="180" text-anchor="middle" font-family="Arial, sans-serif" font-size="14" font-weight="bold" fill="#495057">
    Natural Freeform Pool
  </text>
  
  <!-- Category badge -->
  <rect x="10" y="10" width="80" height="25" rx="12" fill="#7ED321" opacity="0.9"/>
  <text x="50" y="27" text-anchor="middle" font-family="Arial, sans-serif" font-size="12" font-weight="bold" fill="white">
    FREEFORM
  </text>
</svg>