<svg width="100" height="120" viewBox="0 0 100 120" fill="none" xmlns="http://www.w3.org/2000/svg">
<rect width="100" height="120" fill="#f0f0f0"/>
<path d="M50 110V50C50 40 40 30 30 30C20 30 20 40 20 50V110Z" fill="#8B4513"/>
<path d="M50 50C50 40 60 30 70 30C80 30 80 40 80 50V110Z" fill="#8B4513"/>
<path d="M20 50C20 40 30 30 40 30C50 30 50 40 50 50C50 40 60 30 70 30C80 30 80 40 80 50" fill="#228B22"/>
<text x="50" y="60" font-family="Arial" font-size="12" fill="#666" text-anchor="middle">Oak</text>
</svg>
